<?xml version="1.0" standalone="no"?>
<!DOCTYPE svg PUBLIC "-//W3C//DTD SVG 20010904//EN"
 "http://www.w3.org/TR/2001/REC-SVG-20010904/DTD/svg10.dtd">
<svg version="1.0" xmlns="http://www.w3.org/2000/svg"
 width="500.000000pt" height="500.000000pt" viewBox="0 0 500.000000 500.000000"
 preserveAspectRatio="xMidYMid meet">
<metadata>
Created by potrace 1.14, written by Peter Selinger 2001-2017
</metadata>
<g transform="translate(0.000000,500.000000) scale(0.100000,-0.100000)"
fill="#000000" stroke="none">
<path d="M2338 4525 c-2 -2 -28 -6 -58 -10 -165 -17 -378 -68 -510 -122 -8 -3
-20 -7 -25 -8 -11 -3 -226 -108 -261 -128 -23 -14 -154 -98 -169 -109 -143
-108 -279 -234 -362 -335 -29 -34 -56 -68 -62 -75 -26 -32 -81 -109 -81 -114
0 -3 -11 -20 -24 -37 -39 -51 -131 -233 -175 -344 -37 -92 -86 -257 -97 -323
-2 -14 -9 -46 -14 -72 -31 -152 -34 -546 -5 -658 2 -8 7 -36 10 -62 7 -53 62
-253 95 -343 29 -80 118 -263 171 -350 125 -206 378 -475 548 -583 14 -9 28
-19 31 -22 7 -8 85 -58 128 -82 264 -149 528 -236 807 -265 89 -9 361 -8 442
1 86 10 118 14 118 16 0 1 25 6 75 14 71 11 276 75 360 113 95 42 222 107 279
143 34 22 67 40 72 40 5 0 9 4 9 8 0 4 13 15 29 25 113 66 334 279 441 423 28
38 54 74 58 79 121 154 281 528 318 745 3 14 9 48 14 75 16 81 22 161 25 310
4 228 -26 430 -100 665 -36 114 -138 341 -156 348 -5 2 -9 9 -9 15 0 12 -125
207 -139 217 -4 3 -14 14 -22 26 -101 149 -362 378 -562 496 -106 62 -244 129
-264 127 -3 0 -9 3 -12 8 -8 10 -172 66 -271 91 -78 20 -168 37 -255 48 -59 7
-391 15 -397 9z m272 -159 c58 -3 116 -7 130 -10 14 -3 43 -7 65 -10 143 -18
336 -78 500 -157 92 -44 243 -132 290 -171 297 -240 446 -418 581 -693 83
-169 152 -378 170 -510 3 -22 8 -58 11 -80 3 -22 7 -121 8 -220 4 -253 -24
-425 -105 -646 -31 -85 -125 -281 -157 -331 -10 -14 -31 -48 -47 -75 -16 -26
-32 -50 -35 -53 -4 -3 -24 -29 -46 -57 -21 -29 -43 -53 -48 -53 -4 0 -29 9
-55 19 -175 71 -766 271 -850 287 -33 6 -40 25 -36 87 8 115 12 132 59 247 50
120 66 171 93 288 6 23 18 55 28 70 40 60 85 167 98 232 3 14 8 36 12 50 14
53 14 215 -2 258 -14 41 -14 172 0 240 9 45 20 189 19 264 -2 200 -98 390
-264 522 -25 20 -50 36 -54 36 -5 0 -16 6 -24 14 -23 19 -168 73 -221 81 -116
17 -162 20 -260 18 -185 -4 -333 -45 -455 -126 -67 -45 -153 -129 -181 -176
-10 -17 -22 -31 -26 -31 -4 0 -8 -9 -8 -20 0 -11 -4 -20 -10 -20 -5 0 -10 -4
-10 -9 0 -5 -8 -26 -17 -47 -9 -22 -18 -43 -19 -49 -2 -5 -10 -35 -18 -65 -15
-54 -16 -240 -2 -330 23 -144 24 -262 2 -311 -39 -92 18 -394 97 -511 27 -39
39 -66 43 -93 4 -27 45 -159 85 -270 26 -74 33 -109 37 -201 5 -119 -4 -154
-38 -154 -33 0 -603 -193 -697 -236 -17 -8 -36 -14 -42 -14 -6 0 -36 -11 -67
-25 -31 -14 -62 -25 -68 -25 -7 0 -30 24 -51 52 -22 29 -43 55 -47 56 -5 2 -8
7 -8 12 0 4 -21 39 -46 77 -53 80 -155 282 -184 368 -27 78 -76 259 -84 310
-3 22 -9 63 -13 90 -15 101 -8 468 11 556 34 159 82 316 126 414 37 84 45 100
50 105 3 3 22 38 43 79 136 261 433 558 707 708 52 28 100 57 107 62 7 6 17
11 22 11 6 0 36 12 66 26 75 34 226 83 305 99 8 2 15 4 15 5 0 4 98 19 160 26
17 1 30 3 30 4 0 1 43 4 95 7 52 2 97 6 98 8 2 2 9 2 15 0 7 -2 59 -6 117 -9z"/>
</g>
</svg>
